<svg id="Layer_1" data-name="Layer 1" xmlns="http://www.w3.org/2000/svg" viewBox="0 0 518.74 382.93"><defs><style>.cls-1{fill:#fff;}</style></defs><ellipse class="cls-1" cx="260.77" cy="205.68" rx="9.3" ry="145.45"/><ellipse class="cls-1" cx="228.99" cy="225.48" rx="9.3" ry="112.28"/><ellipse class="cls-1" cx="329.24" cy="236.51" rx="9.3" ry="82.81"/><ellipse class="cls-1" cx="166.83" cy="243.83" rx="7.8" ry="42.7"/><ellipse class="cls-1" cx="355.44" cy="243.94" rx="4.27" ry="53.77"/><path class="cls-1" d="M283,89.56a70.2,70.2,0,0,0,5.68,9.06c4.47,5.76,10.88,15.94,13,28.93,3.4,20.67,3,67.08,3,67.08L294.4,209.88l8,11.17,2.39,63.58L300,328.79s-1.34,13.89-5.58,0-4.58-104.7-4.58-104.7L278,211.56l8.81-10.43.67-66.47-7.84-17.8a19.16,19.16,0,0,1-1.62-7.67V90.63S281.1,86.15,283,89.56Z"/><ellipse class="cls-1" cx="196.42" cy="236.51" rx="9.3" ry="82.81"/></svg>