<svg width="498" height="255" viewBox="0 0 498 255" fill="none" xmlns="http://www.w3.org/2000/svg">
<path fill-rule="evenodd" clip-rule="evenodd" d="M69.55 198.86C73.0625 198.86 75.91 154.344 75.91 99.43C75.91 44.5163 73.0625 0 69.55 0C66.0375 0 63.19 44.5163 63.19 99.43C63.19 154.344 66.0375 198.86 69.55 198.86ZM193.55 220.21L208.78 253.32H203.24L198.31 242.53H184.42L179.32 253.32H176.59L192.19 220.21H193.55ZM185.37 240.43H197.31L191.43 227.61L185.37 240.43ZM72.38 254.08C69.87 254.08 67.53 253.63 65.36 252.74C63.19 251.85 61.3 250.62 59.7 249.07C58.1 247.52 56.83 245.7 55.91 243.62C54.99 241.55 54.53 239.33 54.53 236.97C54.53 235.42 54.74 233.93 55.15 232.5C55.56 231.07 56.15 229.73 56.92 228.5C57.68 227.26 58.61 226.14 59.69 225.12C60.77 224.1 61.97 223.23 63.29 222.51C64.61 221.79 66.03 221.22 67.56 220.82C69.09 220.42 70.69 220.22 72.37 220.22C74.05 220.22 75.65 220.42 77.18 220.82C78.71 221.22 80.14 221.78 81.47 222.51C82.8 223.23 84 224.1 85.07 225.12C86.14 226.14 87.07 227.27 87.84 228.5C88.61 229.74 89.21 231.07 89.62 232.5C90.03 233.93 90.24 235.42 90.24 236.97C90.24 238.53 90.03 240.04 89.62 241.5C89.2 242.96 88.61 244.32 87.84 245.59C87.07 246.86 86.14 248.02 85.07 249.06C84 250.1 82.8 251 81.47 251.75C80.14 252.5 78.71 253.08 77.18 253.48C75.66 253.87 74.05 254.08 72.38 254.08ZM72.38 252.46C74.24 252.46 75.88 252.07 77.3 251.3C78.72 250.53 79.92 249.45 80.9 248.06C81.88 246.68 82.61 245.04 83.11 243.15C83.61 241.26 83.86 239.19 83.86 236.95C83.86 234.72 83.61 232.68 83.11 230.82C82.61 228.96 81.88 227.37 80.9 226.02C79.92 224.68 78.72 223.64 77.3 222.9C75.88 222.16 74.24 221.79 72.38 221.79C70.49 221.79 68.84 222.16 67.41 222.9C65.99 223.64 64.79 224.68 63.82 226.02C62.85 227.36 62.12 228.96 61.64 230.82C61.16 232.68 60.91 234.72 60.91 236.95C60.91 239.2 61.15 241.26 61.64 243.15C62.13 245.04 62.86 246.67 63.82 248.06C64.79 249.44 65.99 250.52 67.41 251.3C68.83 252.08 70.49 252.46 72.38 252.46ZM106.22 220.95H111.66V253.32H106.22V220.95ZM134.55 220.95H129.11V253.32H150.86V251.22H134.55V220.95ZM224.98 220.95H221.93H221.92V253.32H224.39V227.76H224.59L247.56 254.08H248.83V220.95H246.44V244.63H246.2L224.98 220.95ZM266.28 220.95H277.06C280.38 220.95 283.24 221.26 285.63 221.88C288.02 222.5 290.02 223.49 291.61 224.86C293.43 226.42 294.8 228.21 295.72 230.23C296.64 232.25 297.1 234.45 297.1 236.85C297.1 239.13 296.69 241.27 295.87 243.27C295.05 245.27 293.84 247.02 292.26 248.51C290.67 250 288.71 251.18 286.38 252.04C284.04 252.9 281.37 253.33 278.36 253.33H266.28V220.95ZM271.72 250.95H277.51C279.33 250.95 281.05 250.65 282.66 250.05C284.27 249.45 285.67 248.55 286.87 247.36C288.07 246.17 289.01 244.71 289.7 242.98C290.39 241.25 290.74 239.24 290.74 236.96C290.74 234.96 290.41 233.12 289.76 231.45C289.11 229.78 288.2 228.35 287.03 227.14C285.86 225.94 284.46 225 282.84 224.33C281.22 223.66 279.45 223.33 277.53 223.33H271.72V250.95ZM344.96 223.57C346.61 222.88 348.42 222.53 350.37 222.53C352.53 222.53 354.45 223.14 356.16 224.38C357.83 225.59 359.34 227.51 360.71 230.13L363.05 228.57C362.38 227.48 361.59 226.43 360.66 225.43C359.73 224.43 358.67 223.55 357.47 222.78C356.27 222.02 354.95 221.4 353.49 220.94C352.03 220.47 350.45 220.24 348.74 220.24C346.95 220.24 345.25 220.45 343.66 220.87C342.06 221.29 340.59 221.89 339.24 222.65C337.89 223.41 336.67 224.32 335.6 225.38C334.53 226.44 333.62 227.6 332.87 228.88C332.12 230.16 331.55 231.52 331.15 232.96C330.75 234.4 330.55 235.88 330.55 237.39C330.55 238.92 330.76 240.39 331.18 241.81C331.6 243.23 332.2 244.55 332.97 245.79C333.74 247.03 334.68 248.15 335.79 249.17C336.89 250.18 338.13 251.06 339.51 251.79C340.89 252.53 342.38 253.09 343.99 253.49C345.6 253.89 347.3 254.09 349.09 254.09C350.78 254.09 352.3 254.02 353.63 253.88C354.96 253.74 356.19 253.54 357.3 253.28C358.41 253.02 359.45 252.69 360.41 252.3C361.37 251.91 362.33 251.46 363.27 250.96V236.73H351.7V238.66H357.83V250.01C356.91 250.73 355.89 251.28 354.75 251.66C353.61 252.04 352.34 252.23 350.92 252.23C348.97 252.23 347.14 251.88 345.43 251.19C343.72 250.49 342.23 249.51 340.97 248.22C339.71 246.94 338.71 245.38 337.99 243.55C337.26 241.71 336.9 239.66 336.9 237.38C336.9 235.12 337.23 233.07 337.9 231.24C338.56 229.41 339.49 227.84 340.69 226.55C341.88 225.25 343.31 224.26 344.96 223.57ZM392.88 220.21L408.11 253.32H402.57L397.64 242.53H383.75L378.65 253.32H375.92L391.52 220.21H392.88ZM384.7 240.43H396.64L390.76 227.61L384.7 240.43ZM434.25 251.69C433.47 251.91 432.68 252.02 431.88 252.02C430.82 252.02 429.82 251.87 428.9 251.55C427.97 251.24 427.11 250.8 426.35 250.22C425.59 249.64 424.92 248.94 424.34 248.11C423.76 247.28 423.3 246.34 422.96 245.28L420.05 246.48C420.48 247.68 421.02 248.75 421.69 249.69C422.36 250.63 423.16 251.42 424.1 252.07C425.03 252.72 426.11 253.22 427.33 253.56C428.55 253.9 429.94 254.07 431.5 254.07C433.42 254.07 435.1 253.83 436.55 253.34C438 252.85 439.21 252.19 440.19 251.35C441.17 250.51 441.9 249.52 442.39 248.39C442.88 247.26 443.12 246.06 443.12 244.77C443.12 243.63 442.86 242.6 442.34 241.68C441.81 240.76 441.12 239.91 440.26 239.14C439.4 238.36 438.42 237.65 437.32 237C436.22 236.35 435.1 235.72 433.96 235.12C432.82 234.52 431.7 233.93 430.6 233.34C429.5 232.75 428.52 232.15 427.66 231.52C426.79 230.9 426.1 230.23 425.58 229.52C425.06 228.81 424.8 228.04 424.8 227.19C424.8 226.59 424.93 226 425.18 225.42C425.43 224.84 425.82 224.32 426.33 223.86C426.85 223.4 427.48 223.02 428.25 222.74C429.02 222.45 429.91 222.31 430.94 222.31C432.09 222.31 433.13 222.47 434.05 222.79C434.97 223.1 435.78 223.55 436.48 224.14C437.18 224.72 437.79 225.43 438.29 226.25C438.8 227.07 439.21 227.98 439.54 228.97L442.32 227.7C441.93 226.48 441.42 225.4 440.78 224.48C440.14 223.56 439.37 222.77 438.46 222.14C437.55 221.51 436.49 221.03 435.29 220.7C434.09 220.37 432.72 220.21 431.19 220.21C429.5 220.21 428 220.43 426.69 220.87C425.38 221.31 424.27 221.92 423.38 222.69C422.48 223.47 421.8 224.38 421.34 225.44C420.87 226.5 420.64 227.64 420.64 228.88C420.64 230.11 420.9 231.21 421.41 232.16C421.92 233.11 422.59 233.98 423.42 234.75C424.25 235.52 425.19 236.22 426.26 236.85C427.33 237.47 428.41 238.07 429.52 238.64C430.63 239.21 431.71 239.78 432.78 240.35C433.84 240.92 434.79 241.53 435.62 242.17C436.45 242.81 437.12 243.52 437.63 244.29C438.14 245.06 438.4 245.95 438.4 246.94C438.4 247.77 438.21 248.49 437.84 249.12C437.46 249.75 436.97 250.28 436.35 250.71C435.73 251.14 435.03 251.47 434.25 251.69ZM54.19 112.97C54.19 155.363 51.3425 189.73 47.83 189.73C44.3175 189.73 41.47 155.363 41.47 112.97C41.47 70.5766 44.3175 36.21 47.83 36.21C51.3425 36.21 54.19 70.5766 54.19 112.97ZM116.36 177.12C119.873 177.12 122.72 151.775 122.72 120.51C122.72 89.2452 119.873 63.9 116.36 63.9C112.847 63.9 110 89.2452 110 120.51C110 151.775 112.847 177.12 116.36 177.12ZM10.66 125.51C10.66 141.631 8.27368 154.7 5.33 154.7C2.38632 154.7 0 141.631 0 125.51C0 109.389 2.38632 96.32 5.33 96.32C8.27368 96.32 10.66 109.389 10.66 125.51ZM134.27 162.35C135.883 162.35 137.19 145.892 137.19 125.59C137.19 105.288 135.883 88.83 134.27 88.83C132.657 88.83 131.35 105.288 131.35 125.59C131.35 145.892 132.657 162.35 134.27 162.35ZM84.7501 20.0501L84.75 20.05C83.45 17.72 81.31 20.78 81.31 20.78V33.47C81.31 35.27 81.69 37.06 82.42 38.71L87.78 50.88L87.32 96.32L81.3 103.45L89.41 112.02C89.41 112.02 89.64 174.09 92.54 183.59C95.44 193.09 96.36 183.59 96.36 183.59L99.61 153.4L97.98 109.94L92.54 102.3L99.6 91.88C99.6 91.88 99.84 60.15 97.52 46.02C96.07 37.14 91.69 30.18 88.63 26.24C87.13 24.31 85.94 22.1801 84.7501 20.0501ZM204.09 125.59C204.09 145.94 190.52 162.35 166.56 162.35L143.19 161.97L144.57 151.84H169.3C183.63 151.84 193.59 140.13 193.59 125.58C193.59 111.03 183.63 99.32 169.3 99.32H144.57L143.19 88.82H166.56C191.07 88.83 204.09 105.24 204.09 125.59ZM254.52 99.33V88.83H212.51V99.33H254.52ZM212.51 120.49V130.84H249.27V120.49H212.51ZM254.52 151.85H223.01V151.81H212.51V162.35H254.52V151.85ZM323.09 137.25H333.99C329.52 152.33 316.49 163.23 299.78 163.23C278.99 163.23 262.14 146.38 262.14 125.59C262.14 104.8 278.99 87.95 299.78 87.95C314.66 87.95 326.04 96.27 332.28 108.52L321.67 111.58C317.51 103.7 309.64 98.45 299.79 98.45C284.8 98.45 272.66 110.59 272.66 125.58C272.66 140.57 284.8 152.72 299.79 152.72C311.24 152.72 319.47 146.33 323.09 137.25ZM335.66 125.59C335.66 127.98 335.45 130.32 335.06 132.59H297.15V122.09L335.44 122.2C335.55 123.18 335.66 124.38 335.66 125.59ZM409.43 164.11V88.83H398.93V139.16L348.16 87.08V101.57L409.43 164.11ZM358.66 120.99L348.16 110.43V162.35H358.66V120.99ZM457.01 88.08V98.62C443.35 100.09 432.87 111.5 432.87 125.59C432.87 139.68 443.34 151.09 457.01 152.56V163.1C437.62 161.57 422.37 145.37 422.37 125.59C422.36 105.81 437.62 89.61 457.01 88.08ZM497.64 125.59C497.64 145.37 482.38 161.57 463 163.1V152.56C476.66 151.09 487.14 139.67 487.14 125.59C487.14 111.51 476.67 100.09 463 98.62V88.08C482.39 89.61 497.64 105.81 497.64 125.59ZM31.92 120.51C31.92 151.775 29.0725 177.12 25.56 177.12C22.0475 177.12 19.2 151.775 19.2 120.51C19.2 89.2452 22.0475 63.9 25.56 63.9C29.0725 63.9 31.92 89.2452 31.92 120.51Z" fill="#FFFBFB"/>
</svg>
