<svg width="519" height="289" viewBox="0 0 519 289" fill="none" xmlns="http://www.w3.org/2000/svg">
<path d="M82.1 231.1C85.6346 231.1 88.5 186.597 88.5 131.7C88.5 76.8029 85.6346 32.3 82.1 32.3C78.5654 32.3 75.7 76.8029 75.7 131.7C75.7 186.597 78.5654 231.1 82.1 231.1Z" fill="white"/>
<path d="M60.4 222C63.9346 222 66.8 187.615 66.8 145.2C66.8 102.785 63.9346 68.4 60.4 68.4C56.8654 68.4 54 102.785 54 145.2C54 187.615 56.8654 222 60.4 222Z" fill="white"/>
<path d="M128.9 209.3C132.435 209.3 135.3 183.959 135.3 152.7C135.3 121.441 132.435 96.1 128.9 96.1C125.365 96.1 122.5 121.441 122.5 152.7C122.5 183.959 125.365 209.3 128.9 209.3Z" fill="white"/>
<path d="M17.9 186.9C20.8271 186.9 23.2 173.827 23.2 157.7C23.2 141.573 20.8271 128.5 17.9 128.5C14.9729 128.5 12.6 141.573 12.6 157.7C12.6 173.827 14.9729 186.9 17.9 186.9Z" fill="white"/>
<path d="M146.8 194.6C148.402 194.6 149.7 178.124 149.7 157.8C149.7 137.476 148.402 121 146.8 121C145.198 121 143.9 137.476 143.9 157.8C143.9 178.124 145.198 194.6 146.8 194.6Z" fill="white"/>
<path d="M97.3 52.3C98.5 54.4 99.7 56.6 101.2 58.5C104.3 62.4 108.6 69.4 110.1 78.3C112.4 92.4 112.2 124.2 112.2 124.2L105.1 134.6L110.5 142.2L112.1 185.7L108.9 215.9C108.9 215.9 108 225.4 105.1 215.9C102.2 206.4 102 144.3 102 144.3L93.9 135.7L99.9 128.6L100.4 83.2L95 70.9C94.3 69.2 93.9 67.5 93.9 65.7V53C93.9 53 96 49.9 97.3 52.3Z" fill="white"/>
<path d="M216.6 157.8C216.6 178.2 203 194.6 179.1 194.6L155.7 194.2L157.1 184.1H181.8C196.1 184.1 206.1 172.4 206.1 157.8C206.1 143.2 196.1 131.5 181.8 131.5H157.1L155.7 121H179.1C203.6 121.1 216.6 137.5 216.6 157.8Z" fill="white"/>
<path d="M267.1 121.1V131.6H225.1V121.1H267.1ZM225.1 163.1V152.7H261.9V163.1H225.1ZM235.6 184.1H267.1V194.6H225.1V184L235.6 184.1Z" fill="white"/>
<path d="M335.6 169.5H346.5C342 184.6 329 195.5 312.3 195.5C291.5 195.5 274.7 178.6 274.7 157.9C274.7 137.2 291.6 120.3 312.3 120.3C327.2 120.3 338.6 128.6 344.8 140.9L334.2 144C330 136.1 322.2 130.9 312.3 130.9C297.3 130.9 285.2 143 285.2 158C285.2 173 297.3 185.1 312.3 185.1C323.8 184.9 332 178.6 335.6 169.5ZM348.2 157.8C348.2 160.2 348 162.5 347.6 164.8H309.7V154.3L348 154.4C348.1 155.4 348.2 156.6 348.2 157.8Z" fill="white"/>
<path d="M422 121.1V196.4L360.7 133.9V119.4L411.5 171.5V121.2H422V121.1ZM360.7 142.7L371.2 153.3V194.7H360.7V142.7Z" fill="white"/>
<path d="M469.6 120.3V130.8C455.9 132.3 445.5 143.7 445.5 157.8C445.5 171.9 456 183.3 469.6 184.8V195.3C450.2 193.8 435 177.6 435 157.8C434.9 138 450.2 121.8 469.6 120.3ZM510.2 157.8C510.2 177.6 494.9 193.8 475.6 195.3V184.8C489.3 183.3 499.7 171.9 499.7 157.8C499.7 143.7 489.2 132.3 475.6 130.8V120.3C494.9 121.8 510.2 138 510.2 157.8Z" fill="white"/>
<path d="M38.1 209.3C41.6346 209.3 44.5 183.959 44.5 152.7C44.5 121.441 41.6346 96.1 38.1 96.1C34.5654 96.1 31.7 121.441 31.7 152.7C31.7 183.959 34.5654 209.3 38.1 209.3Z" fill="white"/>
</svg>
